<svg width="146" height="355" viewBox="0 0 146 355" fill="none" xmlns="http://www.w3.org/2000/svg">
<g opacity="0.8" clip-path="url(#clip0_67_1093)">
<g filter="url(#filter0_b_67_1093)">
<path d="M108.999 131C108.999 131 69.7702 144.24 67.3919 145.289C58.3887 149.226 50.7244 155.686 45.3294 163.885C39.9345 172.084 37.0411 181.669 37 191.478V296.146V355C37 355 76.1291 341.76 78.6325 340.711C87.6087 336.78 95.2537 330.341 100.646 322.173C106.039 314.004 108.948 304.453 109.024 294.672V235.368L108.999 131Z" fill="url(#paint0_linear_67_1093)" fill-opacity="0.6"/>
<path d="M108.999 131C108.999 131 69.7702 144.24 67.3919 145.289C58.3887 149.226 50.7244 155.686 45.3294 163.885C39.9345 172.084 37.0411 181.669 37 191.478V296.146V355C37 355 76.1291 341.76 78.6325 340.711C87.6087 336.78 95.2537 330.341 100.646 322.173C106.039 314.004 108.948 304.453 109.024 294.672V235.368L108.999 131Z" fill="#60AAFB" fill-opacity="0.2"/>
<path d="M38.5258 353.956L37.5 354.303V296.146V191.479C37.5409 181.768 40.4056 172.277 45.7471 164.16C51.0889 156.041 58.6776 149.645 67.5923 145.747L67.5938 145.746C68.1638 145.495 71.032 144.48 75.06 143.086C79.071 141.698 84.1967 139.945 89.2487 138.224C94.3006 136.504 99.2783 134.816 102.993 133.559C104.85 132.93 106.392 132.409 107.469 132.045L108.5 131.697L108.524 235.368V235.369V294.67C108.449 304.354 105.568 313.81 100.229 321.897C94.8903 329.984 87.3219 336.358 78.4355 340.252C77.1875 340.773 66.8177 344.333 56.7161 347.776C51.6689 349.496 46.6997 351.184 42.9924 352.441C41.1388 353.07 39.6006 353.591 38.5258 353.956Z" stroke="url(#paint1_linear_67_1093)" stroke-opacity="0.6"/>
<path d="M38.5258 353.956L37.5 354.303V296.146V191.479C37.5409 181.768 40.4056 172.277 45.7471 164.16C51.0889 156.041 58.6776 149.645 67.5923 145.747L67.5938 145.746C68.1638 145.495 71.032 144.48 75.06 143.086C79.071 141.698 84.1967 139.945 89.2487 138.224C94.3006 136.504 99.2783 134.816 102.993 133.559C104.85 132.93 106.392 132.409 107.469 132.045L108.5 131.697L108.524 235.368V235.369V294.67C108.449 304.354 105.568 313.81 100.229 321.897C94.8903 329.984 87.3219 336.358 78.4355 340.252C77.1875 340.773 66.8177 344.333 56.7161 347.776C51.6689 349.496 46.6997 351.184 42.9924 352.441C41.1388 353.07 39.6006 353.591 38.5258 353.956Z" stroke="url(#paint2_linear_67_1093)"/>
</g>
</g>
<g opacity="0.8" clip-path="url(#clip1_67_1093)">
<g filter="url(#filter1_b_67_1093)">
<path d="M30.8141 89.5013C21.7055 93.4948 13.9483 100.043 8.47983 108.354C3.01139 116.664 0.0661404 126.382 0 136.332V141.005V224.102C0 224.102 39.7486 210.642 42.1853 209.6C51.2901 205.601 59.0438 199.052 64.5115 190.743C69.9792 182.433 72.9269 172.718 72.9994 162.77V160.89V75C72.9994 75 33.2254 88.46 30.8141 89.5013Z" fill="url(#paint3_linear_67_1093)" fill-opacity="0.6"/>
<path d="M30.8141 89.5013C21.7055 93.4948 13.9483 100.043 8.47983 108.354C3.01139 116.664 0.0661404 126.382 0 136.332V141.005V224.102C0 224.102 39.7486 210.642 42.1853 209.6C51.2901 205.601 59.0438 199.052 64.5115 190.743C69.9792 182.433 72.9269 172.718 72.9994 162.77V160.89V75C72.9994 75 33.2254 88.46 30.8141 89.5013Z" fill="#60AAFB" fill-opacity="0.2"/>
<path d="M71.4461 76.054L72.4994 75.6972V160.89V162.768C72.4272 172.619 69.5081 182.239 64.0938 190.468C58.6796 198.696 51.0017 205.182 41.9862 209.142C40.7776 209.657 30.2698 213.269 20.0174 216.768C14.8969 218.516 9.85241 220.231 6.08805 221.509C4.20588 222.148 2.64375 222.678 1.55217 223.048L0.5 223.404V141.005V136.334C0.565815 126.481 3.48247 116.858 8.89752 108.628C14.3126 100.399 21.994 93.9146 31.0135 89.9598C32.2013 89.4475 42.7117 85.8339 52.9724 82.3334C58.0945 80.5859 63.1414 78.871 66.9077 77.5929C68.7909 76.9538 70.3539 76.424 71.4461 76.054Z" stroke="url(#paint4_linear_67_1093)" stroke-opacity="0.6"/>
<path d="M71.4461 76.054L72.4994 75.6972V160.89V162.768C72.4272 172.619 69.5081 182.239 64.0938 190.468C58.6796 198.696 51.0017 205.182 41.9862 209.142C40.7776 209.657 30.2698 213.269 20.0174 216.768C14.8969 218.516 9.85241 220.231 6.08805 221.509C4.20588 222.148 2.64375 222.678 1.55217 223.048L0.5 223.404V141.005V136.334C0.565815 126.481 3.48247 116.858 8.89752 108.628C14.3126 100.399 21.994 93.9146 31.0135 89.9598C32.2013 89.4475 42.7117 85.8339 52.9724 82.3334C58.0945 80.5859 63.1414 78.871 66.9077 77.5929C68.7909 76.9538 70.3539 76.424 71.4461 76.054Z" stroke="url(#paint5_linear_67_1093)"/>
</g>
</g>
<g opacity="0.8" clip-path="url(#clip2_67_1093)">
<g filter="url(#filter2_b_67_1093)">
<path d="M129.819 5.54747C126.325 7.07521 123.35 9.58014 121.253 12.7594C119.155 15.9387 118.025 19.6562 118 23.4626V25.2502V57.0389C118 57.0389 133.246 51.8897 134.181 51.4914C137.673 49.9616 140.647 47.4562 142.744 44.2774C144.841 41.0985 145.972 37.3821 146 33.5763V32.8573V0C146 0 130.744 5.14914 129.819 5.54747Z" fill="url(#paint6_linear_67_1093)" fill-opacity="0.6"/>
<path d="M129.819 5.54747C126.325 7.07521 123.35 9.58014 121.253 12.7594C119.155 15.9387 118.025 19.6562 118 23.4626V25.2502V57.0389C118 57.0389 133.246 51.8897 134.181 51.4914C137.673 49.9616 140.647 47.4562 142.744 44.2774C144.841 41.0985 145.972 37.3821 146 33.5763V32.8573V0C146 0 130.744 5.14914 129.819 5.54747Z" fill="#60AAFB" fill-opacity="0.2"/>
<path d="M143.762 1.28439C144.483 1.04047 145.081 0.838152 145.5 0.696642V32.8573V33.5744C145.472 37.2829 144.37 40.9043 142.327 44.002C140.283 47.0995 137.385 49.5412 133.982 51.0323C133.527 51.2253 129.519 52.6 125.579 53.9412C123.615 54.6096 121.68 55.2656 120.236 55.7545C119.516 55.9983 118.918 56.2006 118.5 56.3421V25.2502V23.4643C118.525 19.7553 119.626 16.1329 121.67 13.0348C123.714 9.93658 126.613 7.49532 130.018 6.00617C130.463 5.81533 134.472 4.44014 138.417 3.09771C140.382 2.42929 142.317 1.77329 143.762 1.28439Z" stroke="url(#paint7_linear_67_1093)" stroke-opacity="0.6"/>
<path d="M143.762 1.28439C144.483 1.04047 145.081 0.838152 145.5 0.696642V32.8573V33.5744C145.472 37.2829 144.37 40.9043 142.327 44.002C140.283 47.0995 137.385 49.5412 133.982 51.0323C133.527 51.2253 129.519 52.6 125.579 53.9412C123.615 54.6096 121.68 55.2656 120.236 55.7545C119.516 55.9983 118.918 56.2006 118.5 56.3421V25.2502V23.4643C118.525 19.7553 119.626 16.1329 121.67 13.0348C123.714 9.93658 126.613 7.49532 130.018 6.00617C130.463 5.81533 134.472 4.44014 138.417 3.09771C140.382 2.42929 142.317 1.77329 143.762 1.28439Z" stroke="url(#paint8_linear_67_1093)"/>
</g>
</g>
<defs>
<filter id="filter0_b_67_1093" x="11" y="105" width="124.024" height="276" filterUnits="userSpaceOnUse" color-interpolation-filters="sRGB">
<feFlood flood-opacity="0" result="BackgroundImageFix"/>
<feGaussianBlur in="BackgroundImageFix" stdDeviation="13"/>
<feComposite in2="SourceAlpha" operator="in" result="effect1_backgroundBlur_67_1093"/>
<feBlend mode="normal" in="SourceGraphic" in2="effect1_backgroundBlur_67_1093" result="shape"/>
</filter>
<filter id="filter1_b_67_1093" x="-26" y="49" width="125" height="201.102" filterUnits="userSpaceOnUse" color-interpolation-filters="sRGB">
<feFlood flood-opacity="0" result="BackgroundImageFix"/>
<feGaussianBlur in="BackgroundImageFix" stdDeviation="13"/>
<feComposite in2="SourceAlpha" operator="in" result="effect1_backgroundBlur_67_1093"/>
<feBlend mode="normal" in="SourceGraphic" in2="effect1_backgroundBlur_67_1093" result="shape"/>
</filter>
<filter id="filter2_b_67_1093" x="92" y="-26" width="80" height="109.039" filterUnits="userSpaceOnUse" color-interpolation-filters="sRGB">
<feFlood flood-opacity="0" result="BackgroundImageFix"/>
<feGaussianBlur in="BackgroundImageFix" stdDeviation="13"/>
<feComposite in2="SourceAlpha" operator="in" result="effect1_backgroundBlur_67_1093"/>
<feBlend mode="normal" in="SourceGraphic" in2="effect1_backgroundBlur_67_1093" result="shape"/>
</filter>
<linearGradient id="paint0_linear_67_1093" x1="73.0122" y1="131" x2="157.687" y2="151.22" gradientUnits="userSpaceOnUse">
<stop stop-color="white" stop-opacity="0.2"/>
<stop offset="1" stop-color="white" stop-opacity="0"/>
</linearGradient>
<linearGradient id="paint1_linear_67_1093" x1="122.836" y1="220.548" x2="98.2181" y2="220.799" gradientUnits="userSpaceOnUse">
<stop stop-color="white"/>
<stop offset="1" stop-color="#EFEFEF" stop-opacity="0"/>
</linearGradient>
<linearGradient id="paint2_linear_67_1093" x1="37" y1="131" x2="73.3206" y2="137.208" gradientUnits="userSpaceOnUse">
<stop stop-color="white" stop-opacity="0.5"/>
<stop offset="1" stop-color="white" stop-opacity="0"/>
</linearGradient>
<linearGradient id="paint3_linear_67_1093" x1="36.4997" y1="75" x2="116.621" y2="104.133" gradientUnits="userSpaceOnUse">
<stop stop-color="white" stop-opacity="0.2"/>
<stop offset="1" stop-color="white" stop-opacity="0"/>
</linearGradient>
<linearGradient id="paint4_linear_67_1093" x1="86.9979" y1="134.606" x2="62.0502" y2="134.994" gradientUnits="userSpaceOnUse">
<stop stop-color="white"/>
<stop offset="1" stop-color="#EFEFEF" stop-opacity="0"/>
</linearGradient>
<linearGradient id="paint5_linear_67_1093" x1="0" y1="75" x2="35.4843" y2="84.2346" gradientUnits="userSpaceOnUse">
<stop stop-color="white" stop-opacity="0.5"/>
<stop offset="1" stop-color="white" stop-opacity="0"/>
</linearGradient>
<linearGradient id="paint6_linear_67_1093" x1="132" y1="0" x2="162.712" y2="11.1969" gradientUnits="userSpaceOnUse">
<stop stop-color="white" stop-opacity="0.2"/>
<stop offset="1" stop-color="white" stop-opacity="0"/>
</linearGradient>
<linearGradient id="paint7_linear_67_1093" x1="151.369" y1="22.8023" x2="141.8" y2="22.9513" gradientUnits="userSpaceOnUse">
<stop stop-color="white"/>
<stop offset="1" stop-color="#EFEFEF" stop-opacity="0"/>
</linearGradient>
<linearGradient id="paint8_linear_67_1093" x1="118" y1="0" x2="131.606" y2="3.55021" gradientUnits="userSpaceOnUse">
<stop stop-color="white" stop-opacity="0.5"/>
<stop offset="1" stop-color="white" stop-opacity="0"/>
</linearGradient>
<clipPath id="clip0_67_1093">
<rect width="72" height="224" fill="white" transform="translate(37 131)"/>
</clipPath>
<clipPath id="clip1_67_1093">
<rect width="73" height="149" fill="white" transform="translate(0 75)"/>
</clipPath>
<clipPath id="clip2_67_1093">
<rect width="28" height="57" fill="white" transform="translate(118)"/>
</clipPath>
</defs>
</svg>
