<svg width="200" height="393" viewBox="0 0 200 393" fill="none" xmlns="http://www.w3.org/2000/svg">
<g opacity="0.8" clip-path="url(#clip0_67_1092)">
<g filter="url(#filter0_b_67_1092)">
<path d="M159 242C159 242 132.847 250.925 131.261 251.632C125.259 254.286 120.15 258.641 116.553 264.168C112.956 269.695 111.027 276.157 111 282.768V353.326V393C111 393 137.086 384.075 138.755 383.368C144.739 380.717 149.836 376.377 153.431 370.871C157.026 365.364 158.965 358.926 159.016 352.333V312.356L159 242Z" fill="url(#paint0_linear_67_1092)" fill-opacity="0.6"/>
<path d="M159 242C159 242 132.847 250.925 131.261 251.632C125.259 254.286 120.15 258.641 116.553 264.168C112.956 269.695 111.027 276.157 111 282.768V353.326V393C111 393 137.086 384.075 138.755 383.368C144.739 380.717 149.836 376.377 153.431 370.871C157.026 365.364 158.965 358.926 159.016 352.333V312.356L159 242Z" fill="#60AAFB" fill-opacity="0.2"/>
<path d="M111.962 392.142L111.5 392.3V353.326V282.77C111.527 276.254 113.428 269.887 116.972 264.441C120.516 258.994 125.55 254.704 131.463 252.09L131.465 252.089C131.837 251.923 133.739 251.242 136.429 250.301C139.103 249.365 142.52 248.183 145.888 247.024C149.256 245.864 152.574 244.726 155.05 243.879C156.289 243.455 157.316 243.103 158.034 242.858L158.5 242.699L158.516 312.356V312.356V352.331C158.466 358.828 156.554 365.172 153.012 370.598C149.47 376.022 144.45 380.298 138.557 382.909C137.727 383.259 130.826 385.654 124.089 387.976C120.724 389.136 117.411 390.274 114.94 391.121C113.704 391.545 112.679 391.897 111.962 392.142Z" stroke="url(#paint1_linear_67_1092)" stroke-opacity="0.6"/>
<path d="M111.962 392.142L111.5 392.3V353.326V282.77C111.527 276.254 113.428 269.887 116.972 264.441C120.516 258.994 125.55 254.704 131.463 252.09L131.465 252.089C131.837 251.923 133.739 251.242 136.429 250.301C139.103 249.365 142.52 248.183 145.888 247.024C149.256 245.864 152.574 244.726 155.05 243.879C156.289 243.455 157.316 243.103 158.034 242.858L158.5 242.699L158.516 312.356V312.356V352.331C158.466 358.828 156.554 365.172 153.012 370.598C149.47 376.022 144.45 380.298 138.557 382.909C137.727 383.259 130.826 385.654 124.089 387.976C120.724 389.136 117.411 390.274 114.94 391.121C113.704 391.545 112.679 391.897 111.962 392.142Z" stroke="url(#paint2_linear_67_1092)"/>
</g>
</g>
<g opacity="0.8" clip-path="url(#clip1_67_1092)">
<g filter="url(#filter1_b_67_1092)">
<path d="M40.5226 69.0755C28.5442 74.3288 18.3429 82.9422 11.1516 93.8745C3.96019 104.807 0.0869792 117.59 0 130.678V136.825V246.134C0 246.134 52.2722 228.428 55.4766 227.058C67.45 221.798 77.6467 213.183 84.8371 202.252C92.0274 191.321 95.9039 178.542 95.9992 165.455V162.983V50C95.9992 50 43.6937 67.7058 40.5226 69.0755Z" fill="url(#paint3_linear_67_1092)" fill-opacity="0.6"/>
<path d="M40.5226 69.0755C28.5442 74.3288 18.3429 82.9422 11.1516 93.8745C3.96019 104.807 0.0869792 117.59 0 130.678V136.825V246.134C0 246.134 52.2722 228.428 55.4766 227.058C67.45 221.798 77.6467 213.183 84.8371 202.252C92.0274 191.321 95.9039 178.542 95.9992 165.455V162.983V50C95.9992 50 43.6937 67.7058 40.5226 69.0755Z" fill="#60AAFB" fill-opacity="0.2"/>
<path d="M93.906 51.237L95.4992 50.6972V162.983V165.454C95.4042 178.443 91.5563 191.128 84.4193 201.977C77.2826 212.827 67.1622 221.378 55.2785 226.599C53.6916 227.277 39.8576 232.034 26.3751 236.636C19.6411 238.935 13.0072 241.191 8.05681 242.872C5.5816 243.713 3.52727 244.41 2.09176 244.897L0.5 245.436V136.825V130.68C0.586654 117.689 4.43128 105 11.5693 94.1493C18.7073 83.2981 28.8328 74.7485 40.7222 69.534C42.2901 68.8574 56.1231 64.1003 69.6115 59.4973C76.3476 57.1986 82.9846 54.9427 87.9376 53.2614C90.4141 52.4208 92.4696 51.7238 93.906 51.237Z" stroke="url(#paint4_linear_67_1092)" stroke-opacity="0.6"/>
<path d="M93.906 51.237L95.4992 50.6972V162.983V165.454C95.4042 178.443 91.5563 191.128 84.4193 201.977C77.2826 212.827 67.1622 221.378 55.2785 226.599C53.6916 227.277 39.8576 232.034 26.3751 236.636C19.6411 238.935 13.0072 241.191 8.05681 242.872C5.5816 243.713 3.52727 244.41 2.09176 244.897L0.5 245.436V136.825V130.68C0.586654 117.689 4.43128 105 11.5693 94.1493C18.7073 83.2981 28.8328 74.7485 40.7222 69.534C42.2901 68.8574 56.1231 64.1003 69.6115 59.4973C76.3476 57.1986 82.9846 54.9427 87.9376 53.2614C90.4141 52.4208 92.4696 51.7238 93.906 51.237Z" stroke="url(#paint5_linear_67_1092)"/>
</g>
</g>
<g opacity="0.8" clip-path="url(#clip2_67_1092)">
<g filter="url(#filter2_b_67_1092)">
<path d="M88.3718 10.511C81.7588 13.4057 76.1268 18.1518 72.1566 24.1758C68.1864 30.1997 66.048 37.2434 66 44.4554V47.8425V108.074C66 108.074 94.8586 98.3174 96.6277 97.5626C103.238 94.6642 108.867 89.9171 112.837 83.894C116.807 77.8709 118.947 70.8292 119 63.6182V62.256V0C119 0 90.1225 9.75626 88.3718 10.511Z" fill="url(#paint6_linear_67_1092)" fill-opacity="0.6"/>
<path d="M88.3718 10.511C81.7588 13.4057 76.1268 18.1518 72.1566 24.1758C68.1864 30.1997 66.048 37.2434 66 44.4554V47.8425V108.074C66 108.074 94.8586 98.3174 96.6277 97.5626C103.238 94.6642 108.867 89.9171 112.837 83.894C116.807 77.8709 118.947 70.8292 119 63.6182V62.256V0C119 0 90.1225 9.75626 88.3718 10.511Z" fill="#60AAFB" fill-opacity="0.2"/>
<path d="M117.916 0.894326L118.5 0.696835V62.256V63.6161C118.447 70.7299 116.336 77.6768 112.42 83.6188C108.504 89.5606 102.95 94.2439 96.4292 97.1037C95.5563 97.475 87.9368 100.09 80.4892 102.628C76.7716 103.894 73.1093 105.137 70.3763 106.064C69.0098 106.527 67.8757 106.911 67.0832 107.179L66.5 107.377V47.8425V44.4571C66.5477 37.3424 68.6573 30.3937 72.5741 24.4509C76.4909 18.5081 82.047 13.8256 88.5711 10.9696C89.4288 10.6005 97.0497 7.98451 104.503 5.44577C108.222 4.17919 111.886 2.93616 114.621 2.00977C115.988 1.54658 117.123 1.16255 117.916 0.894326Z" stroke="url(#paint7_linear_67_1092)" stroke-opacity="0.6"/>
<path d="M117.916 0.894326L118.5 0.696835V62.256V63.6161C118.447 70.7299 116.336 77.6768 112.42 83.6188C108.504 89.5606 102.95 94.2439 96.4292 97.1037C95.5563 97.475 87.9368 100.09 80.4892 102.628C76.7716 103.894 73.1093 105.137 70.3763 106.064C69.0098 106.527 67.8757 106.911 67.0832 107.179L66.5 107.377V47.8425V44.4571C66.5477 37.3424 68.6573 30.3937 72.5741 24.4509C76.4909 18.5081 82.047 13.8256 88.5711 10.9696C89.4288 10.6005 97.0497 7.98451 104.503 5.44577C108.222 4.17919 111.886 2.93616 114.621 2.00977C115.988 1.54658 117.123 1.16255 117.916 0.894326Z" stroke="url(#paint8_linear_67_1092)"/>
</g>
</g>
<g opacity="0.8" clip-path="url(#clip3_67_1092)">
<g filter="url(#filter3_b_67_1092)">
<path d="M186.709 134.477C183.839 135.71 181.395 137.731 179.672 140.297C177.949 142.863 177.021 145.863 177 148.935V150.377V176.031C177 176.031 189.524 171.876 190.291 171.554C193.16 170.32 195.603 168.298 197.326 165.733C199.048 163.167 199.977 160.168 200 157.097V156.516V130C200 130 187.468 134.155 186.709 134.477Z" fill="url(#paint9_linear_67_1092)" fill-opacity="0.6"/>
<path d="M186.709 134.477C183.839 135.71 181.395 137.731 179.672 140.297C177.949 142.863 177.021 145.863 177 148.935V150.377V176.031C177 176.031 189.524 171.876 190.291 171.554C193.16 170.32 195.603 168.298 197.326 165.733C199.048 163.167 199.977 160.168 200 157.097V156.516V130C200 130 187.468 134.155 186.709 134.477Z" fill="#60AAFB" fill-opacity="0.2"/>
<path d="M198.188 131.129C198.716 130.953 199.165 130.804 199.5 130.693V156.516V157.095C199.477 160.067 198.579 162.97 196.91 165.454C195.242 167.938 192.876 169.897 190.096 171.094C189.724 171.249 186.438 172.356 183.199 173.439C181.586 173.979 179.997 174.508 178.811 174.903C178.283 175.078 177.835 175.227 177.5 175.338V150.377V148.936C177.52 145.964 178.419 143.06 180.087 140.576C181.755 138.091 184.123 136.132 186.904 134.937C187.266 134.784 190.554 133.676 193.798 132.592C195.411 132.053 197.001 131.523 198.188 131.129Z" stroke="url(#paint10_linear_67_1092)" stroke-opacity="0.6"/>
<path d="M198.188 131.129C198.716 130.953 199.165 130.804 199.5 130.693V156.516V157.095C199.477 160.067 198.579 162.97 196.91 165.454C195.242 167.938 192.876 169.897 190.096 171.094C189.724 171.249 186.438 172.356 183.199 173.439C181.586 173.979 179.997 174.508 178.811 174.903C178.283 175.078 177.835 175.227 177.5 175.338V150.377V148.936C177.52 145.964 178.419 143.06 180.087 140.576C181.755 138.091 184.123 136.132 186.904 134.937C187.266 134.784 190.554 133.676 193.798 132.592C195.411 132.053 197.001 131.523 198.188 131.129Z" stroke="url(#paint11_linear_67_1092)"/>
</g>
</g>
<defs>
<filter id="filter0_b_67_1092" x="85" y="216" width="100.016" height="203" filterUnits="userSpaceOnUse" color-interpolation-filters="sRGB">
<feFlood flood-opacity="0" result="BackgroundImageFix"/>
<feGaussianBlur in="BackgroundImageFix" stdDeviation="13"/>
<feComposite in2="SourceAlpha" operator="in" result="effect1_backgroundBlur_67_1092"/>
<feBlend mode="normal" in="SourceGraphic" in2="effect1_backgroundBlur_67_1092" result="shape"/>
</filter>
<filter id="filter1_b_67_1092" x="-26" y="24" width="147.999" height="248.134" filterUnits="userSpaceOnUse" color-interpolation-filters="sRGB">
<feFlood flood-opacity="0" result="BackgroundImageFix"/>
<feGaussianBlur in="BackgroundImageFix" stdDeviation="13"/>
<feComposite in2="SourceAlpha" operator="in" result="effect1_backgroundBlur_67_1092"/>
<feBlend mode="normal" in="SourceGraphic" in2="effect1_backgroundBlur_67_1092" result="shape"/>
</filter>
<filter id="filter2_b_67_1092" x="40" y="-26" width="105" height="160.074" filterUnits="userSpaceOnUse" color-interpolation-filters="sRGB">
<feFlood flood-opacity="0" result="BackgroundImageFix"/>
<feGaussianBlur in="BackgroundImageFix" stdDeviation="13"/>
<feComposite in2="SourceAlpha" operator="in" result="effect1_backgroundBlur_67_1092"/>
<feBlend mode="normal" in="SourceGraphic" in2="effect1_backgroundBlur_67_1092" result="shape"/>
</filter>
<filter id="filter3_b_67_1092" x="151" y="104" width="75" height="98.0312" filterUnits="userSpaceOnUse" color-interpolation-filters="sRGB">
<feFlood flood-opacity="0" result="BackgroundImageFix"/>
<feGaussianBlur in="BackgroundImageFix" stdDeviation="13"/>
<feComposite in2="SourceAlpha" operator="in" result="effect1_backgroundBlur_67_1092"/>
<feBlend mode="normal" in="SourceGraphic" in2="effect1_backgroundBlur_67_1092" result="shape"/>
</filter>
<linearGradient id="paint0_linear_67_1092" x1="135.008" y1="242" x2="191.525" y2="255.347" gradientUnits="userSpaceOnUse">
<stop stop-color="white" stop-opacity="0.2"/>
<stop offset="1" stop-color="white" stop-opacity="0"/>
</linearGradient>
<linearGradient id="paint1_linear_67_1092" x1="168.224" y1="302.365" x2="151.812" y2="302.53" gradientUnits="userSpaceOnUse">
<stop stop-color="white"/>
<stop offset="1" stop-color="#EFEFEF" stop-opacity="0"/>
</linearGradient>
<linearGradient id="paint2_linear_67_1092" x1="111" y1="242" x2="135.229" y2="246.095" gradientUnits="userSpaceOnUse">
<stop stop-color="white" stop-opacity="0.5"/>
<stop offset="1" stop-color="white" stop-opacity="0"/>
</linearGradient>
<linearGradient id="paint3_linear_67_1092" x1="47.9996" y1="50" x2="153.372" y2="88.3037" gradientUnits="userSpaceOnUse">
<stop stop-color="white" stop-opacity="0.2"/>
<stop offset="1" stop-color="white" stop-opacity="0"/>
</linearGradient>
<linearGradient id="paint4_linear_67_1092" x1="114.408" y1="128.408" x2="81.6003" y2="128.917" gradientUnits="userSpaceOnUse">
<stop stop-color="white"/>
<stop offset="1" stop-color="#EFEFEF" stop-opacity="0"/>
</linearGradient>
<linearGradient id="paint5_linear_67_1092" x1="0" y1="50" x2="46.6659" y2="62.1412" gradientUnits="userSpaceOnUse">
<stop stop-color="white" stop-opacity="0.5"/>
<stop offset="1" stop-color="white" stop-opacity="0"/>
</linearGradient>
<linearGradient id="paint6_linear_67_1092" x1="92.4998" y1="0" x2="150.648" y2="21.1781" gradientUnits="userSpaceOnUse">
<stop stop-color="white" stop-opacity="0.2"/>
<stop offset="1" stop-color="white" stop-opacity="0"/>
</linearGradient>
<linearGradient id="paint7_linear_67_1092" x1="129.163" y1="43.2043" x2="111.05" y2="43.4862" gradientUnits="userSpaceOnUse">
<stop stop-color="white"/>
<stop offset="1" stop-color="#EFEFEF" stop-opacity="0"/>
</linearGradient>
<linearGradient id="paint8_linear_67_1092" x1="66" y1="0" x2="91.7572" y2="6.71423" gradientUnits="userSpaceOnUse">
<stop stop-color="white" stop-opacity="0.5"/>
<stop offset="1" stop-color="white" stop-opacity="0"/>
</linearGradient>
<linearGradient id="paint9_linear_67_1092" x1="188.5" y1="130" x2="213.622" y2="139.322" gradientUnits="userSpaceOnUse">
<stop stop-color="white" stop-opacity="0.2"/>
<stop offset="1" stop-color="white" stop-opacity="0"/>
</linearGradient>
<linearGradient id="paint10_linear_67_1092" x1="204.41" y1="148.402" x2="196.55" y2="148.526" gradientUnits="userSpaceOnUse">
<stop stop-color="white"/>
<stop offset="1" stop-color="#EFEFEF" stop-opacity="0"/>
</linearGradient>
<linearGradient id="paint11_linear_67_1092" x1="177" y1="130" x2="188.151" y2="132.962" gradientUnits="userSpaceOnUse">
<stop stop-color="white" stop-opacity="0.5"/>
<stop offset="1" stop-color="white" stop-opacity="0"/>
</linearGradient>
<clipPath id="clip0_67_1092">
<rect width="48" height="151" fill="white" transform="translate(111 242)"/>
</clipPath>
<clipPath id="clip1_67_1092">
<rect width="96" height="196" fill="white" transform="translate(0 50)"/>
</clipPath>
<clipPath id="clip2_67_1092">
<rect width="53" height="108" fill="white" transform="translate(66)"/>
</clipPath>
<clipPath id="clip3_67_1092">
<rect width="23" height="46" fill="white" transform="translate(177 130)"/>
</clipPath>
</defs>
</svg>
