<svg width="396" height="428" viewBox="0 0 396 428" fill="none" xmlns="http://www.w3.org/2000/svg">
<rect x="4" width="1" height="428" fill="url(#paint0_linear_124_1091)"/>
<rect x="69" width="1" height="428" fill="url(#paint1_linear_124_1091)"/>
<rect x="134" width="1" height="428" fill="url(#paint2_linear_124_1091)"/>
<rect x="199" width="1" height="428" fill="url(#paint3_linear_124_1091)"/>
<rect x="264" width="1" height="428" fill="url(#paint4_linear_124_1091)"/>
<rect x="329" width="1" height="428" fill="url(#paint5_linear_124_1091)"/>
<g clip-path="url(#clip0_124_1091)">
<path opacity="0.1" d="M320.25 306.86C287 326.36 247 341.9 201.48 353C156.86 363.92 106.74 370.59 52.0498 373H374.05C379.399 373 384.53 370.875 388.312 367.092C392.095 363.31 394.22 358.179 394.22 352.83V241C390 248 370.13 277.64 320.25 306.86Z" fill="#355DFB"/>
<path opacity="0.1" d="M224.6 288.27C167.52 328.44 97.8399 356.56 17.3599 371.93C85.4599 371.23 147.14 364.25 200.84 351.13C246.16 340.06 285.94 324.62 319.06 305.24C375.42 272.24 393.17 238.87 393.34 238.54C393.426 238.379 393.554 238.244 393.711 238.151C393.868 238.057 394.047 238.009 394.23 238.01V11.1599C391.3 34.8199 380.23 96.8199 340.85 163.16C311.415 212.638 271.787 255.286 224.6 288.27Z" fill="#0000DE"/>
<path d="M6 373C325 373 394.23 239 394.23 239" stroke="#355DFB" stroke-width="2" stroke-miterlimit="10" stroke-linecap="round"/>
<path d="M6 373C379 308 394.23 1 394.23 1" stroke="#0000DE" stroke-width="2" stroke-miterlimit="10" stroke-linecap="round"/>
</g>
<circle cx="5" cy="372" r="4" fill="white" stroke="#0000DE" stroke-width="2"/>
<circle cx="69" cy="359" r="4" fill="white" stroke="#0000DE" stroke-width="2"/>
<circle cx="135" cy="336" r="4" fill="white" stroke="#0000DE" stroke-width="2"/>
<circle cx="199" cy="304" r="4" fill="white" stroke="#0000DE" stroke-width="2"/>
<circle cx="265" cy="254" r="4" fill="white" stroke="#0000DE" stroke-width="2"/>
<circle cx="329" cy="180" r="4" fill="white" stroke="#0000DE" stroke-width="2"/>
<defs>
<linearGradient id="paint0_linear_124_1091" x1="4.5" y1="0" x2="4.5" y2="428" gradientUnits="userSpaceOnUse">
<stop stop-color="#C6D9E9" stop-opacity="0"/>
<stop offset="0.494792" stop-color="#C6D9E9"/>
<stop offset="1" stop-color="#C6D9E9" stop-opacity="0"/>
</linearGradient>
<linearGradient id="paint1_linear_124_1091" x1="69.5" y1="0" x2="69.5" y2="428" gradientUnits="userSpaceOnUse">
<stop stop-color="#C6D9E9" stop-opacity="0"/>
<stop offset="0.494792" stop-color="#C6D9E9"/>
<stop offset="1" stop-color="#C6D9E9" stop-opacity="0"/>
</linearGradient>
<linearGradient id="paint2_linear_124_1091" x1="134.5" y1="0" x2="134.5" y2="428" gradientUnits="userSpaceOnUse">
<stop stop-color="#C6D9E9" stop-opacity="0"/>
<stop offset="0.494792" stop-color="#C6D9E9"/>
<stop offset="1" stop-color="#C6D9E9" stop-opacity="0"/>
</linearGradient>
<linearGradient id="paint3_linear_124_1091" x1="199.5" y1="0" x2="199.5" y2="428" gradientUnits="userSpaceOnUse">
<stop stop-color="#C6D9E9" stop-opacity="0"/>
<stop offset="0.494792" stop-color="#C6D9E9"/>
<stop offset="1" stop-color="#C6D9E9" stop-opacity="0"/>
</linearGradient>
<linearGradient id="paint4_linear_124_1091" x1="264.5" y1="0" x2="264.5" y2="428" gradientUnits="userSpaceOnUse">
<stop stop-color="#C6D9E9" stop-opacity="0"/>
<stop offset="0.494792" stop-color="#C6D9E9"/>
<stop offset="1" stop-color="#C6D9E9" stop-opacity="0"/>
</linearGradient>
<linearGradient id="paint5_linear_124_1091" x1="329.5" y1="0" x2="329.5" y2="428" gradientUnits="userSpaceOnUse">
<stop stop-color="#C6D9E9" stop-opacity="0"/>
<stop offset="0.494792" stop-color="#C6D9E9"/>
<stop offset="1" stop-color="#C6D9E9" stop-opacity="0"/>
</linearGradient>
<clipPath id="clip0_124_1091">
<rect width="390.23" height="374" fill="white" transform="translate(5)"/>
</clipPath>
</defs>
</svg>
