<svg width="423" height="163" viewBox="0 0 423 163" fill="none" xmlns="http://www.w3.org/2000/svg">
<rect width="1" height="423" transform="matrix(0 1 1 0 0 162)" fill="url(#paint0_linear_145_1256)"/>
<rect width="1" height="423" transform="matrix(0 1 1 0 0 139)" fill="url(#paint1_linear_145_1256)"/>
<rect width="1" height="423" transform="matrix(0 1 1 0 0 116)" fill="url(#paint2_linear_145_1256)"/>
<rect width="1" height="423" transform="matrix(0 1 1 0 0 92)" fill="url(#paint3_linear_145_1256)"/>
<rect width="1" height="423" transform="matrix(0 1 1 0 0 68)" fill="url(#paint4_linear_145_1256)"/>
<rect width="1" height="423" transform="matrix(0 1 1 0 0 44)" fill="url(#paint5_linear_145_1256)"/>
<path d="M0 157.8C0 147.719 0 142.679 1.96188 138.828C3.6876 135.441 6.44125 132.688 9.82817 130.962C13.6786 129 18.7191 129 28.8 129H95V133.2C95 143.281 95 148.321 93.0381 152.172C91.3124 155.559 88.5587 158.312 85.1718 160.038C81.3214 162 76.2809 162 66.2 162H0V157.8Z" fill="#C9CEE1"/>
<path d="M292 144.8C292 134.719 292 129.679 293.962 125.828C295.688 122.441 298.441 119.688 301.828 117.962C305.679 116 310.719 116 320.8 116H387V133.2C387 143.281 387 148.321 385.038 152.172C383.312 155.559 380.559 158.312 377.172 160.038C373.321 162 368.281 162 358.2 162H292V144.8Z" fill="#C9CEE1"/>
<path d="M0.4 97.56H1.7C2.07333 97.1067 2.36 96.5467 2.56 95.88C2.77333 95.2 2.92 94.4867 3 93.74C3.09333 92.98 3.14667 92.2267 3.16 91.48C3.17333 90.7333 3.18 90.0667 3.18 89.48H11.38V97.56H13.16V103H10.62V100H2.94V103H0.4V97.56ZM8.4 97.56V91.92H5.96C5.93333 92.3867 5.9 92.8733 5.86 93.38C5.83333 93.8733 5.77333 94.3667 5.68 94.86C5.6 95.34 5.48667 95.8133 5.34 96.28C5.19333 96.7467 5 97.1733 4.76 97.56H8.4ZM24.7947 94.72C24.7947 95.5467 24.6747 96.3067 24.4347 97C24.1947 97.68 23.848 98.2667 23.3947 98.76C22.9414 99.24 22.3947 99.6133 21.7547 99.88C21.128 100.147 20.4214 100.28 19.6347 100.28C18.8614 100.28 18.1547 100.147 17.5147 99.88C16.888 99.6133 16.348 99.24 15.8947 98.76C15.4414 98.2667 15.088 97.68 14.8347 97C14.5814 96.3067 14.4547 95.5467 14.4547 94.72C14.4547 93.8933 14.5814 93.14 14.8347 92.46C15.1014 91.78 15.4614 91.2 15.9147 90.72C16.3814 90.24 16.928 89.8667 17.5547 89.6C18.1947 89.3333 18.888 89.2 19.6347 89.2C20.3947 89.2 21.088 89.3333 21.7147 89.6C22.3547 89.8667 22.9014 90.24 23.3547 90.72C23.808 91.2 24.1614 91.78 24.4147 92.46C24.668 93.14 24.7947 93.8933 24.7947 94.72ZM21.7547 94.72C21.7547 93.8 21.568 93.08 21.1947 92.56C20.8347 92.0267 20.3147 91.76 19.6347 91.76C18.9547 91.76 18.428 92.0267 18.0547 92.56C17.6814 93.08 17.4947 93.8 17.4947 94.72C17.4947 95.64 17.6814 96.3733 18.0547 96.92C18.428 97.4533 18.9547 97.72 19.6347 97.72C20.3147 97.72 20.8347 97.4533 21.1947 96.92C21.568 96.3733 21.7547 95.64 21.7547 94.72ZM48.8102 94.21C48.8102 95.11 48.6502 95.94 48.3302 96.7C48.0302 97.44 47.5702 98.09 46.9502 98.65C46.3302 99.21 45.5502 99.65 44.6102 99.97C43.6902 100.27 42.6202 100.42 41.4002 100.42C40.0002 100.42 38.8302 100.23 37.8902 99.85C36.9702 99.45 36.2202 98.96 35.6402 98.38C35.0802 97.8 34.6802 97.17 34.4402 96.49C34.2002 95.79 34.0802 95.15 34.0802 94.57C34.0802 93.97 34.1602 93.42 34.3202 92.92C34.4802 92.42 34.7002 91.97 34.9802 91.57C35.2602 91.15 35.5702 90.77 35.9102 90.43C36.2702 90.09 36.6502 89.77 37.0502 89.47C36.1902 88.77 35.5502 88.08 35.1302 87.4C34.7302 86.72 34.5302 85.85 34.5302 84.79C34.5302 83.99 34.6902 83.22 35.0102 82.48C35.3502 81.74 35.8202 81.1 36.4202 80.56C37.0202 80 37.7402 79.56 38.5802 79.24C39.4402 78.9 40.3902 78.73 41.4302 78.73C42.6502 78.73 43.6902 78.91 44.5502 79.27C45.4302 79.61 46.1502 80.05 46.7102 80.59C47.2702 81.13 47.6702 81.74 47.9102 82.42C48.1702 83.08 48.3002 83.74 48.3002 84.4C48.3002 85.36 48.0402 86.26 47.5202 87.1C47.0202 87.92 46.3902 88.57 45.6302 89.05C46.7702 89.79 47.5802 90.57 48.0602 91.39C48.5602 92.19 48.8102 93.13 48.8102 94.21ZM38.4302 94.39C38.4302 94.63 38.4802 94.9 38.5802 95.2C38.7002 95.48 38.8802 95.74 39.1202 95.98C39.3602 96.22 39.6702 96.42 40.0502 96.58C40.4302 96.74 40.8902 96.82 41.4302 96.82C42.4702 96.82 43.2302 96.57 43.7102 96.07C44.1902 95.57 44.4302 95.01 44.4302 94.39C44.4302 93.93 44.3202 93.52 44.1002 93.16C43.9002 92.8 43.6202 92.49 43.2602 92.23C42.9002 91.95 42.4702 91.71 41.9702 91.51C41.4902 91.29 40.9702 91.09 40.4102 90.91C39.8502 91.33 39.3802 91.82 39.0002 92.38C38.6202 92.94 38.4302 93.61 38.4302 94.39ZM43.9802 84.52C43.9802 84.3 43.9302 84.07 43.8302 83.83C43.7502 83.57 43.6002 83.33 43.3802 83.11C43.1802 82.89 42.9202 82.71 42.6002 82.57C42.2802 82.41 41.8902 82.33 41.4302 82.33C40.9902 82.33 40.6102 82.4 40.2902 82.54C39.9702 82.68 39.7002 82.87 39.4802 83.11C39.2802 83.33 39.1302 83.57 39.0302 83.83C38.9302 84.09 38.8802 84.34 38.8802 84.58C38.8802 85.22 39.1102 85.82 39.5702 86.38C40.0502 86.94 40.8602 87.42 42.0002 87.82C42.6402 87.42 43.1302 86.96 43.4702 86.44C43.8102 85.92 43.9802 85.28 43.9802 84.52ZM61.6309 84.55C61.6309 86.43 61.1509 87.87 60.1909 88.87C59.2309 89.87 57.9409 90.37 56.3209 90.37C54.7009 90.37 53.4109 89.87 52.4509 88.87C51.4909 87.87 51.0109 86.43 51.0109 84.55C51.0109 82.67 51.4909 81.23 52.4509 80.23C53.4109 79.23 54.7009 78.73 56.3209 78.73C57.9409 78.73 59.2309 79.23 60.1909 80.23C61.1509 81.23 61.6309 82.67 61.6309 84.55ZM58.2409 84.55C58.2409 83.53 58.0609 82.79 57.7009 82.33C57.3409 81.87 56.8809 81.64 56.3209 81.64C55.7409 81.64 55.2709 81.87 54.9109 82.33C54.5709 82.79 54.4009 83.53 54.4009 84.55C54.4009 85.57 54.5709 86.32 54.9109 86.8C55.2709 87.26 55.7409 87.49 56.3209 87.49C56.8809 87.49 57.3409 87.26 57.7009 86.8C58.0609 86.32 58.2409 85.57 58.2409 84.55ZM67.4809 79.21H71.6509L59.9209 100H55.7509L67.4809 79.21ZM76.4509 94.66C76.4509 96.54 75.9709 97.98 75.0109 98.98C74.0509 99.98 72.7609 100.48 71.1409 100.48C69.5209 100.48 68.2309 99.98 67.2709 98.98C66.3109 97.98 65.8309 96.54 65.8309 94.66C65.8309 92.78 66.3109 91.34 67.2709 90.34C68.2309 89.34 69.5209 88.84 71.1409 88.84C72.7609 88.84 74.0509 89.34 75.0109 90.34C75.9709 91.34 76.4509 92.78 76.4509 94.66ZM73.0609 94.66C73.0609 93.64 72.8809 92.9 72.5209 92.44C72.1609 91.98 71.7009 91.75 71.1409 91.75C70.5609 91.75 70.0909 91.98 69.7309 92.44C69.3909 92.9 69.2209 93.64 69.2209 94.66C69.2209 95.68 69.3909 96.43 69.7309 96.91C70.0909 97.37 70.5609 97.6 71.1409 97.6C71.7009 97.6 72.1609 97.37 72.5209 96.91C72.8809 96.43 73.0609 95.68 73.0609 94.66Z" fill="#7C83A1"/>
<path d="M6.902 110.298V111.474H2.562V120H1.204V110.298H6.902ZM13.0694 116.36C13.0694 116.939 12.9854 117.461 12.8174 117.928C12.6494 118.395 12.4114 118.796 12.1034 119.132C11.8048 119.468 11.4454 119.729 11.0254 119.916C10.6054 120.093 10.1481 120.182 9.65344 120.182C9.15877 120.182 8.70144 120.093 8.28144 119.916C7.86144 119.729 7.49744 119.468 7.18944 119.132C6.89077 118.796 6.65744 118.395 6.48944 117.928C6.32144 117.461 6.23744 116.939 6.23744 116.36C6.23744 115.791 6.32144 115.273 6.48944 114.806C6.65744 114.33 6.89077 113.924 7.18944 113.588C7.49744 113.252 7.86144 112.995 8.28144 112.818C8.70144 112.631 9.15877 112.538 9.65344 112.538C10.1481 112.538 10.6054 112.631 11.0254 112.818C11.4454 112.995 11.8048 113.252 12.1034 113.588C12.4114 113.924 12.6494 114.33 12.8174 114.806C12.9854 115.273 13.0694 115.791 13.0694 116.36ZM11.7114 116.36C11.7114 115.539 11.5248 114.89 11.1514 114.414C10.7874 113.929 10.2881 113.686 9.65344 113.686C9.01877 113.686 8.51477 113.929 8.14144 114.414C7.77744 114.89 7.59544 115.539 7.59544 116.36C7.59544 117.181 7.77744 117.835 8.14144 118.32C8.51477 118.796 9.01877 119.034 9.65344 119.034C10.2881 119.034 10.7874 118.796 11.1514 118.32C11.5248 117.835 11.7114 117.181 11.7114 116.36ZM14.0053 118.936H14.7893C15.0973 118.488 15.3399 118.026 15.5173 117.55C15.7039 117.074 15.8439 116.584 15.9373 116.08C16.0306 115.567 16.0913 115.035 16.1193 114.484C16.1473 113.924 16.1659 113.336 16.1753 112.72H20.9493V118.936H21.9293V122.03H20.6973V120H15.2373V122.03H14.0053V118.936ZM19.6473 118.936V113.812H17.3653C17.3559 114.251 17.3326 114.694 17.2953 115.142C17.2579 115.581 17.1973 116.019 17.1133 116.458C17.0293 116.887 16.9079 117.312 16.7493 117.732C16.5999 118.143 16.4086 118.544 16.1753 118.936H19.6473ZM29.7628 116.36C29.7628 116.939 29.6788 117.461 29.5108 117.928C29.3428 118.395 29.1048 118.796 28.7968 119.132C28.4981 119.468 28.1388 119.729 27.7188 119.916C27.2988 120.093 26.8415 120.182 26.3468 120.182C25.8521 120.182 25.3948 120.093 24.9748 119.916C24.5548 119.729 24.1908 119.468 23.8828 119.132C23.5841 118.796 23.3508 118.395 23.1828 117.928C23.0148 117.461 22.9308 116.939 22.9308 116.36C22.9308 115.791 23.0148 115.273 23.1828 114.806C23.3508 114.33 23.5841 113.924 23.8828 113.588C24.1908 113.252 24.5548 112.995 24.9748 112.818C25.3948 112.631 25.8521 112.538 26.3468 112.538C26.8415 112.538 27.2988 112.631 27.7188 112.818C28.1388 112.995 28.4981 113.252 28.7968 113.588C29.1048 113.924 29.3428 114.33 29.5108 114.806C29.6788 115.273 29.7628 115.791 29.7628 116.36ZM28.4048 116.36C28.4048 115.539 28.2181 114.89 27.8448 114.414C27.4808 113.929 26.9815 113.686 26.3468 113.686C25.7121 113.686 25.2081 113.929 24.8348 114.414C24.4708 114.89 24.2888 115.539 24.2888 116.36C24.2888 117.181 24.4708 117.835 24.8348 118.32C25.2081 118.796 25.7121 119.034 26.3468 119.034C26.9815 119.034 27.4808 118.796 27.8448 118.32C28.2181 117.835 28.4048 117.181 28.4048 116.36ZM32.8686 119.02C32.9246 119.029 33.0039 119.039 33.1066 119.048C33.2093 119.057 33.3259 119.067 33.4566 119.076C33.5873 119.076 33.7226 119.081 33.8626 119.09C34.0119 119.09 34.1519 119.09 34.2826 119.09C34.5533 119.09 34.8099 119.071 35.0526 119.034C35.3046 118.997 35.5193 118.931 35.6966 118.838C35.8833 118.745 36.0279 118.623 36.1306 118.474C36.2426 118.315 36.2986 118.115 36.2986 117.872C36.2986 117.639 36.2473 117.447 36.1446 117.298C36.0513 117.139 35.9206 117.013 35.7526 116.92C35.5846 116.827 35.3839 116.761 35.1506 116.724C34.9266 116.687 34.6839 116.668 34.4226 116.668H32.8686V119.02ZM34.2546 115.702C34.5066 115.702 34.7353 115.688 34.9406 115.66C35.1553 115.623 35.3373 115.562 35.4866 115.478C35.6453 115.394 35.7666 115.282 35.8506 115.142C35.9439 115.002 35.9906 114.825 35.9906 114.61C35.9906 114.386 35.9346 114.209 35.8226 114.078C35.7106 113.947 35.5613 113.849 35.3746 113.784C35.1973 113.709 34.9919 113.663 34.7586 113.644C34.5346 113.616 34.3059 113.602 34.0726 113.602C33.8579 113.602 33.6386 113.607 33.4146 113.616C33.1999 113.625 33.0179 113.635 32.8686 113.644V115.702H34.2546ZM34.2266 120.126C33.6759 120.126 33.1673 120.098 32.7006 120.042C32.2339 119.995 31.8653 119.939 31.5946 119.874V112.79C31.8653 112.725 32.2339 112.669 32.7006 112.622C33.1673 112.566 33.6759 112.538 34.2266 112.538C34.6093 112.538 34.9826 112.571 35.3466 112.636C35.7106 112.701 36.0326 112.813 36.3126 112.972C36.5926 113.121 36.8166 113.331 36.9846 113.602C37.1619 113.863 37.2506 114.19 37.2506 114.582C37.2506 114.937 37.1619 115.24 36.9846 115.492C36.8073 115.744 36.5693 115.94 36.2706 116.08C36.6719 116.22 36.9893 116.43 37.2226 116.71C37.4653 116.981 37.5866 117.363 37.5866 117.858C37.5866 118.297 37.4979 118.661 37.3206 118.95C37.1526 119.239 36.9146 119.473 36.6066 119.65C36.3079 119.827 35.9533 119.949 35.5426 120.014C35.1319 120.089 34.6933 120.126 34.2266 120.126ZM41.9385 116.402C41.6865 116.402 41.4392 116.411 41.1965 116.43C40.9632 116.439 40.7532 116.467 40.5665 116.514V119.02C40.6225 119.029 40.7019 119.039 40.8045 119.048C40.9165 119.057 41.0332 119.067 41.1545 119.076C41.2852 119.076 41.4159 119.081 41.5465 119.09C41.6772 119.09 41.7939 119.09 41.8965 119.09C42.4659 119.09 42.9045 118.983 43.2125 118.768C43.5205 118.553 43.6745 118.208 43.6745 117.732C43.6745 117.499 43.6232 117.298 43.5205 117.13C43.4272 116.962 43.2965 116.827 43.1285 116.724C42.9699 116.612 42.7879 116.533 42.5825 116.486C42.3772 116.43 42.1625 116.402 41.9385 116.402ZM39.2645 112.72H40.5665V115.506C40.7252 115.469 40.9539 115.431 41.2525 115.394C41.5605 115.357 41.8545 115.338 42.1345 115.338C42.5172 115.338 42.8812 115.385 43.2265 115.478C43.5719 115.562 43.8752 115.702 44.1365 115.898C44.3979 116.085 44.6032 116.332 44.7525 116.64C44.9112 116.939 44.9905 117.298 44.9905 117.718C44.9905 118.157 44.9159 118.53 44.7665 118.838C44.6172 119.146 44.4072 119.398 44.1365 119.594C43.8659 119.79 43.5392 119.93 43.1565 120.014C42.7739 120.107 42.3539 120.154 41.8965 120.154C41.4579 120.154 41.0145 120.126 40.5665 120.07C40.1185 120.023 39.6845 119.949 39.2645 119.846V112.72ZM47.6365 120H46.3345V112.72H47.6365V120ZM54.2279 120C54.1252 119.795 53.9992 119.566 53.8499 119.314C53.7006 119.062 53.5372 118.805 53.3599 118.544C53.1826 118.273 53.0006 118.007 52.8139 117.746C52.6272 117.485 52.4452 117.237 52.2679 117.004C52.0906 117.237 51.9086 117.489 51.7219 117.76C51.5352 118.021 51.3532 118.287 51.1759 118.558C51.0079 118.819 50.8492 119.076 50.6999 119.328C50.5506 119.58 50.4246 119.804 50.3219 120H48.9779C49.3046 119.365 49.6919 118.721 50.1399 118.068C50.5972 117.405 51.0499 116.775 51.4979 116.178L49.0899 112.72H50.5599L52.2959 115.268L54.0459 112.72H55.4319L53.0799 116.094C53.5279 116.701 53.9852 117.345 54.4519 118.026C54.9279 118.698 55.3292 119.356 55.6559 120H54.2279Z" fill="#7C83A1"/>
<path d="M292.4 83.56H293.7C294.073 83.1067 294.36 82.5467 294.56 81.88C294.773 81.2 294.92 80.4867 295 79.74C295.093 78.98 295.147 78.2267 295.16 77.48C295.173 76.7333 295.18 76.0667 295.18 75.48H303.38V83.56H305.16V89H302.62V86H294.94V89H292.4V83.56ZM300.4 83.56V77.92H297.96C297.933 78.3867 297.9 78.8733 297.86 79.38C297.833 79.8733 297.773 80.3667 297.68 80.86C297.6 81.34 297.487 81.8133 297.34 82.28C297.193 82.7467 297 83.1733 296.76 83.56H300.4ZM316.795 80.72C316.795 81.5467 316.675 82.3067 316.435 83C316.195 83.68 315.848 84.2667 315.395 84.76C314.941 85.24 314.395 85.6133 313.755 85.88C313.128 86.1467 312.421 86.28 311.635 86.28C310.861 86.28 310.155 86.1467 309.515 85.88C308.888 85.6133 308.348 85.24 307.895 84.76C307.441 84.2667 307.088 83.68 306.835 83C306.581 82.3067 306.455 81.5467 306.455 80.72C306.455 79.8933 306.581 79.14 306.835 78.46C307.101 77.78 307.461 77.2 307.915 76.72C308.381 76.24 308.928 75.8667 309.555 75.6C310.195 75.3333 310.888 75.2 311.635 75.2C312.395 75.2 313.088 75.3333 313.715 75.6C314.355 75.8667 314.901 76.24 315.355 76.72C315.808 77.2 316.161 77.78 316.415 78.46C316.668 79.14 316.795 79.8933 316.795 80.72ZM313.755 80.72C313.755 79.8 313.568 79.08 313.195 78.56C312.835 78.0267 312.315 77.76 311.635 77.76C310.955 77.76 310.428 78.0267 310.055 78.56C309.681 79.08 309.495 79.8 309.495 80.72C309.495 81.64 309.681 82.3733 310.055 82.92C310.428 83.4533 310.955 83.72 311.635 83.72C312.315 83.72 312.835 83.4533 313.195 82.92C313.568 82.3733 313.755 81.64 313.755 80.72ZM333.58 74.84C334.04 74.84 334.52 74.8 335.02 74.72C335.52 74.62 335.89 74.49 336.13 74.33V74.06C336.13 73.98 336.13 73.9 336.13 73.82C336.15 73.74 336.16 73.67 336.16 73.61C336.14 72.89 336.08 72.22 335.98 71.6C335.88 70.96 335.71 70.41 335.47 69.95C335.23 69.47 334.9 69.1 334.48 68.84C334.08 68.56 333.58 68.42 332.98 68.42C332.5 68.42 332.08 68.52 331.72 68.72C331.36 68.92 331.07 69.18 330.85 69.5C330.63 69.82 330.46 70.17 330.34 70.55C330.24 70.93 330.19 71.3 330.19 71.66C330.19 72.74 330.45 73.54 330.97 74.06C331.51 74.58 332.38 74.84 333.58 74.84ZM335.77 77.75C335.35 77.95 334.88 78.1 334.36 78.2C333.86 78.28 333.43 78.32 333.07 78.32C331.77 78.32 330.66 78.17 329.74 77.87C328.82 77.55 328.06 77.11 327.46 76.55C326.88 75.97 326.45 75.28 326.17 74.48C325.89 73.68 325.75 72.8 325.75 71.84C325.75 71.04 325.88 70.22 326.14 69.38C326.42 68.54 326.85 67.78 327.43 67.1C328.01 66.4 328.74 65.83 329.62 65.39C330.52 64.93 331.6 64.7 332.86 64.7C335.44 64.7 337.38 65.5 338.68 67.1C340 68.68 340.66 70.96 340.66 73.94C340.66 75.9 340.4 77.63 339.88 79.13C339.38 80.63 338.59 81.89 337.51 82.91C336.45 83.93 335.09 84.71 333.43 85.25C331.77 85.77 329.8 86.04 327.52 86.06C327.5 85.42 327.47 84.8 327.43 84.2C327.39 83.6 327.35 82.98 327.31 82.34C328.45 82.32 329.48 82.24 330.4 82.1C331.32 81.94 332.13 81.69 332.83 81.35C333.53 80.99 334.12 80.52 334.6 79.94C335.1 79.36 335.49 78.63 335.77 77.75ZM353.631 70.55C353.631 72.43 353.151 73.87 352.191 74.87C351.231 75.87 349.941 76.37 348.321 76.37C346.701 76.37 345.411 75.87 344.451 74.87C343.491 73.87 343.011 72.43 343.011 70.55C343.011 68.67 343.491 67.23 344.451 66.23C345.411 65.23 346.701 64.73 348.321 64.73C349.941 64.73 351.231 65.23 352.191 66.23C353.151 67.23 353.631 68.67 353.631 70.55ZM350.241 70.55C350.241 69.53 350.061 68.79 349.701 68.33C349.341 67.87 348.881 67.64 348.321 67.64C347.741 67.64 347.271 67.87 346.911 68.33C346.571 68.79 346.401 69.53 346.401 70.55C346.401 71.57 346.571 72.32 346.911 72.8C347.271 73.26 347.741 73.49 348.321 73.49C348.881 73.49 349.341 73.26 349.701 72.8C350.061 72.32 350.241 71.57 350.241 70.55ZM359.481 65.21H363.651L351.921 86H347.751L359.481 65.21ZM368.451 80.66C368.451 82.54 367.971 83.98 367.011 84.98C366.051 85.98 364.761 86.48 363.141 86.48C361.521 86.48 360.231 85.98 359.271 84.98C358.311 83.98 357.831 82.54 357.831 80.66C357.831 78.78 358.311 77.34 359.271 76.34C360.231 75.34 361.521 74.84 363.141 74.84C364.761 74.84 366.051 75.34 367.011 76.34C367.971 77.34 368.451 78.78 368.451 80.66ZM365.061 80.66C365.061 79.64 364.881 78.9 364.521 78.44C364.161 77.98 363.701 77.75 363.141 77.75C362.561 77.75 362.091 77.98 361.731 78.44C361.391 78.9 361.221 79.64 361.221 80.66C361.221 81.68 361.391 82.43 361.731 82.91C362.091 83.37 362.561 83.6 363.141 83.6C363.701 83.6 364.161 83.37 364.521 82.91C364.881 82.43 365.061 81.68 365.061 80.66Z" fill="#7C83A1"/>
<path d="M298.902 96.298V97.474H294.562V106H293.204V96.298H298.902ZM305.069 102.36C305.069 102.939 304.985 103.461 304.817 103.928C304.649 104.395 304.411 104.796 304.103 105.132C303.805 105.468 303.445 105.729 303.025 105.916C302.605 106.093 302.148 106.182 301.653 106.182C301.159 106.182 300.701 106.093 300.281 105.916C299.861 105.729 299.497 105.468 299.189 105.132C298.891 104.796 298.657 104.395 298.489 103.928C298.321 103.461 298.237 102.939 298.237 102.36C298.237 101.791 298.321 101.273 298.489 100.806C298.657 100.33 298.891 99.924 299.189 99.588C299.497 99.252 299.861 98.9953 300.281 98.818C300.701 98.6313 301.159 98.538 301.653 98.538C302.148 98.538 302.605 98.6313 303.025 98.818C303.445 98.9953 303.805 99.252 304.103 99.588C304.411 99.924 304.649 100.33 304.817 100.806C304.985 101.273 305.069 101.791 305.069 102.36ZM303.711 102.36C303.711 101.539 303.525 100.89 303.151 100.414C302.787 99.9287 302.288 99.686 301.653 99.686C301.019 99.686 300.515 99.9287 300.141 100.414C299.777 100.89 299.595 101.539 299.595 102.36C299.595 103.181 299.777 103.835 300.141 104.32C300.515 104.796 301.019 105.034 301.653 105.034C302.288 105.034 302.787 104.796 303.151 104.32C303.525 103.835 303.711 103.181 303.711 102.36ZM306.005 104.936H306.789C307.097 104.488 307.34 104.026 307.517 103.55C307.704 103.074 307.844 102.584 307.937 102.08C308.031 101.567 308.091 101.035 308.119 100.484C308.147 99.924 308.166 99.336 308.175 98.72H312.949V104.936H313.929V108.03H312.697V106H307.237V108.03H306.005V104.936ZM311.647 104.936V99.812H309.365C309.356 100.251 309.333 100.694 309.295 101.142C309.258 101.581 309.197 102.019 309.113 102.458C309.029 102.887 308.908 103.312 308.749 103.732C308.6 104.143 308.409 104.544 308.175 104.936H311.647ZM321.763 102.36C321.763 102.939 321.679 103.461 321.511 103.928C321.343 104.395 321.105 104.796 320.797 105.132C320.498 105.468 320.139 105.729 319.719 105.916C319.299 106.093 318.841 106.182 318.347 106.182C317.852 106.182 317.395 106.093 316.975 105.916C316.555 105.729 316.191 105.468 315.883 105.132C315.584 104.796 315.351 104.395 315.183 103.928C315.015 103.461 314.931 102.939 314.931 102.36C314.931 101.791 315.015 101.273 315.183 100.806C315.351 100.33 315.584 99.924 315.883 99.588C316.191 99.252 316.555 98.9953 316.975 98.818C317.395 98.6313 317.852 98.538 318.347 98.538C318.841 98.538 319.299 98.6313 319.719 98.818C320.139 98.9953 320.498 99.252 320.797 99.588C321.105 99.924 321.343 100.33 321.511 100.806C321.679 101.273 321.763 101.791 321.763 102.36ZM320.405 102.36C320.405 101.539 320.218 100.89 319.845 100.414C319.481 99.9287 318.981 99.686 318.347 99.686C317.712 99.686 317.208 99.9287 316.835 100.414C316.471 100.89 316.289 101.539 316.289 102.36C316.289 103.181 316.471 103.835 316.835 104.32C317.208 104.796 317.712 105.034 318.347 105.034C318.981 105.034 319.481 104.796 319.845 104.32C320.218 103.835 320.405 103.181 320.405 102.36ZM324.869 105.02C324.925 105.029 325.004 105.039 325.107 105.048C325.209 105.057 325.326 105.067 325.457 105.076C325.587 105.076 325.723 105.081 325.863 105.09C326.012 105.09 326.152 105.09 326.283 105.09C326.553 105.09 326.81 105.071 327.053 105.034C327.305 104.997 327.519 104.931 327.697 104.838C327.883 104.745 328.028 104.623 328.131 104.474C328.243 104.315 328.299 104.115 328.299 103.872C328.299 103.639 328.247 103.447 328.145 103.298C328.051 103.139 327.921 103.013 327.753 102.92C327.585 102.827 327.384 102.761 327.151 102.724C326.927 102.687 326.684 102.668 326.423 102.668H324.869V105.02ZM326.255 101.702C326.507 101.702 326.735 101.688 326.941 101.66C327.155 101.623 327.337 101.562 327.487 101.478C327.645 101.394 327.767 101.282 327.851 101.142C327.944 101.002 327.991 100.825 327.991 100.61C327.991 100.386 327.935 100.209 327.823 100.078C327.711 99.9473 327.561 99.8493 327.375 99.784C327.197 99.7093 326.992 99.6627 326.759 99.644C326.535 99.616 326.306 99.602 326.073 99.602C325.858 99.602 325.639 99.6067 325.415 99.616C325.2 99.6253 325.018 99.6347 324.869 99.644V101.702H326.255ZM326.227 106.126C325.676 106.126 325.167 106.098 324.701 106.042C324.234 105.995 323.865 105.939 323.595 105.874V98.79C323.865 98.7247 324.234 98.6687 324.701 98.622C325.167 98.566 325.676 98.538 326.227 98.538C326.609 98.538 326.983 98.5707 327.347 98.636C327.711 98.7013 328.033 98.8133 328.313 98.972C328.593 99.1213 328.817 99.3313 328.985 99.602C329.162 99.8633 329.251 100.19 329.251 100.582C329.251 100.937 329.162 101.24 328.985 101.492C328.807 101.744 328.569 101.94 328.271 102.08C328.672 102.22 328.989 102.43 329.223 102.71C329.465 102.981 329.587 103.363 329.587 103.858C329.587 104.297 329.498 104.661 329.321 104.95C329.153 105.239 328.915 105.473 328.607 105.65C328.308 105.827 327.953 105.949 327.543 106.014C327.132 106.089 326.693 106.126 326.227 106.126ZM333.939 102.402C333.687 102.402 333.439 102.411 333.197 102.43C332.963 102.439 332.753 102.467 332.567 102.514V105.02C332.623 105.029 332.702 105.039 332.805 105.048C332.917 105.057 333.033 105.067 333.155 105.076C333.285 105.076 333.416 105.081 333.547 105.09C333.677 105.09 333.794 105.09 333.897 105.09C334.466 105.09 334.905 104.983 335.213 104.768C335.521 104.553 335.675 104.208 335.675 103.732C335.675 103.499 335.623 103.298 335.521 103.13C335.427 102.962 335.297 102.827 335.129 102.724C334.97 102.612 334.788 102.533 334.583 102.486C334.377 102.43 334.163 102.402 333.939 102.402ZM331.265 98.72H332.567V101.506C332.725 101.469 332.954 101.431 333.253 101.394C333.561 101.357 333.855 101.338 334.135 101.338C334.517 101.338 334.881 101.385 335.227 101.478C335.572 101.562 335.875 101.702 336.137 101.898C336.398 102.085 336.603 102.332 336.753 102.64C336.911 102.939 336.991 103.298 336.991 103.718C336.991 104.157 336.916 104.53 336.767 104.838C336.617 105.146 336.407 105.398 336.137 105.594C335.866 105.79 335.539 105.93 335.157 106.014C334.774 106.107 334.354 106.154 333.897 106.154C333.458 106.154 333.015 106.126 332.567 106.07C332.119 106.023 331.685 105.949 331.265 105.846V98.72ZM339.637 106H338.335V98.72H339.637V106ZM346.228 106C346.125 105.795 345.999 105.566 345.85 105.314C345.701 105.062 345.537 104.805 345.36 104.544C345.183 104.273 345.001 104.007 344.814 103.746C344.627 103.485 344.445 103.237 344.268 103.004C344.091 103.237 343.909 103.489 343.722 103.76C343.535 104.021 343.353 104.287 343.176 104.558C343.008 104.819 342.849 105.076 342.7 105.328C342.551 105.58 342.425 105.804 342.322 106H340.978C341.305 105.365 341.692 104.721 342.14 104.068C342.597 103.405 343.05 102.775 343.498 102.178L341.09 98.72H342.56L344.296 101.268L346.046 98.72H347.432L345.08 102.094C345.528 102.701 345.985 103.345 346.452 104.026C346.928 104.698 347.329 105.356 347.656 106H346.228Z" fill="#7C83A1"/>
<path d="M146 85.8C146 75.7191 146 70.6786 147.962 66.8282C149.688 63.4413 152.441 60.6876 155.828 58.9619C159.679 57 164.719 57 174.8 57H241V133.2C241 143.281 241 148.321 239.038 152.172C237.312 155.559 234.559 158.312 231.172 160.038C227.321 162 222.281 162 212.2 162H146V85.8Z" fill="#355DFB"/>
<path d="M146.4 25.56H147.7C148.073 25.1067 148.36 24.5467 148.56 23.88C148.773 23.2 148.92 22.4867 149 21.74C149.093 20.98 149.147 20.2267 149.16 19.48C149.173 18.7333 149.18 18.0667 149.18 17.48H157.38V25.56H159.16V31H156.62V28H148.94V31H146.4V25.56ZM154.4 25.56V19.92H151.96C151.933 20.3867 151.9 20.8733 151.86 21.38C151.833 21.8733 151.773 22.3667 151.68 22.86C151.6 23.34 151.487 23.8133 151.34 24.28C151.193 24.7467 151 25.1733 150.76 25.56H154.4ZM170.795 22.72C170.795 23.5467 170.675 24.3067 170.435 25C170.195 25.68 169.848 26.2667 169.395 26.76C168.941 27.24 168.395 27.6133 167.755 27.88C167.128 28.1467 166.421 28.28 165.635 28.28C164.861 28.28 164.155 28.1467 163.515 27.88C162.888 27.6133 162.348 27.24 161.895 26.76C161.441 26.2667 161.088 25.68 160.835 25C160.581 24.3067 160.455 23.5467 160.455 22.72C160.455 21.8933 160.581 21.14 160.835 20.46C161.101 19.78 161.461 19.2 161.915 18.72C162.381 18.24 162.928 17.8667 163.555 17.6C164.195 17.3333 164.888 17.2 165.635 17.2C166.395 17.2 167.088 17.3333 167.715 17.6C168.355 17.8667 168.901 18.24 169.355 18.72C169.808 19.2 170.161 19.78 170.415 20.46C170.668 21.14 170.795 21.8933 170.795 22.72ZM167.755 22.72C167.755 21.8 167.568 21.08 167.195 20.56C166.835 20.0267 166.315 19.76 165.635 19.76C164.955 19.76 164.428 20.0267 164.055 20.56C163.681 21.08 163.495 21.8 163.495 22.72C163.495 23.64 163.681 24.3733 164.055 24.92C164.428 25.4533 164.955 25.72 165.635 25.72C166.315 25.72 166.835 25.4533 167.195 24.92C167.568 24.3733 167.755 23.64 167.755 22.72ZM181.01 11.53C181.59 11.29 182.19 11.02 182.81 10.72C183.45 10.4 184.07 10.06 184.67 9.7C185.27 9.32 185.84 8.93 186.38 8.53C186.94 8.11 187.44 7.67 187.88 7.21H191V28H186.53V13.03C185.93 13.43 185.26 13.8 184.52 14.14C183.78 14.46 183.06 14.74 182.36 14.98L181.01 11.53ZM204.631 16.84C205.091 16.84 205.571 16.8 206.071 16.72C206.571 16.62 206.941 16.49 207.181 16.33V16.06C207.181 15.98 207.181 15.9 207.181 15.82C207.201 15.74 207.211 15.67 207.211 15.61C207.191 14.89 207.131 14.22 207.031 13.6C206.931 12.96 206.761 12.41 206.521 11.95C206.281 11.47 205.951 11.1 205.531 10.84C205.131 10.56 204.631 10.42 204.031 10.42C203.551 10.42 203.131 10.52 202.771 10.72C202.411 10.92 202.121 11.18 201.901 11.5C201.681 11.82 201.511 12.17 201.391 12.55C201.291 12.93 201.241 13.3 201.241 13.66C201.241 14.74 201.501 15.54 202.021 16.06C202.561 16.58 203.431 16.84 204.631 16.84ZM206.821 19.75C206.401 19.95 205.931 20.1 205.411 20.2C204.911 20.28 204.481 20.32 204.121 20.32C202.821 20.32 201.711 20.17 200.791 19.87C199.871 19.55 199.111 19.11 198.511 18.55C197.931 17.97 197.501 17.28 197.221 16.48C196.941 15.68 196.801 14.8 196.801 13.84C196.801 13.04 196.931 12.22 197.191 11.38C197.471 10.54 197.901 9.78 198.481 9.1C199.061 8.4 199.791 7.83 200.671 7.39C201.571 6.93 202.651 6.7 203.911 6.7C206.491 6.7 208.431 7.5 209.731 9.1C211.051 10.68 211.711 12.96 211.711 15.94C211.711 17.9 211.451 19.63 210.931 21.13C210.431 22.63 209.641 23.89 208.561 24.91C207.501 25.93 206.141 26.71 204.481 27.25C202.821 27.77 200.851 28.04 198.571 28.06C198.551 27.42 198.521 26.8 198.481 26.2C198.441 25.6 198.401 24.98 198.361 24.34C199.501 24.32 200.531 24.24 201.451 24.1C202.371 23.94 203.181 23.69 203.881 23.35C204.581 22.99 205.171 22.52 205.651 21.94C206.151 21.36 206.541 20.63 206.821 19.75ZM224.682 12.55C224.682 14.43 224.202 15.87 223.242 16.87C222.282 17.87 220.992 18.37 219.372 18.37C217.752 18.37 216.462 17.87 215.502 16.87C214.542 15.87 214.062 14.43 214.062 12.55C214.062 10.67 214.542 9.23 215.502 8.23C216.462 7.23 217.752 6.73 219.372 6.73C220.992 6.73 222.282 7.23 223.242 8.23C224.202 9.23 224.682 10.67 224.682 12.55ZM221.292 12.55C221.292 11.53 221.112 10.79 220.752 10.33C220.392 9.87 219.932 9.64 219.372 9.64C218.792 9.64 218.322 9.87 217.962 10.33C217.622 10.79 217.452 11.53 217.452 12.55C217.452 13.57 217.622 14.32 217.962 14.8C218.322 15.26 218.792 15.49 219.372 15.49C219.932 15.49 220.392 15.26 220.752 14.8C221.112 14.32 221.292 13.57 221.292 12.55ZM230.532 7.21H234.702L222.972 28H218.802L230.532 7.21ZM239.502 22.66C239.502 24.54 239.022 25.98 238.062 26.98C237.102 27.98 235.812 28.48 234.192 28.48C232.572 28.48 231.282 27.98 230.322 26.98C229.362 25.98 228.882 24.54 228.882 22.66C228.882 20.78 229.362 19.34 230.322 18.34C231.282 17.34 232.572 16.84 234.192 16.84C235.812 16.84 237.102 17.34 238.062 18.34C239.022 19.34 239.502 20.78 239.502 22.66ZM236.112 22.66C236.112 21.64 235.932 20.9 235.572 20.44C235.212 19.98 234.752 19.75 234.192 19.75C233.612 19.75 233.142 19.98 232.782 20.44C232.442 20.9 232.272 21.64 232.272 22.66C232.272 23.68 232.442 24.43 232.782 24.91C233.142 25.37 233.612 25.6 234.192 25.6C234.752 25.6 235.212 25.37 235.572 24.91C235.932 24.43 236.112 23.68 236.112 22.66Z" fill="#355DFB"/>
<path d="M152.902 38.298V39.474H148.562V48H147.204V38.298H152.902ZM159.069 44.36C159.069 44.9387 158.985 45.4613 158.817 45.928C158.649 46.3947 158.411 46.796 158.103 47.132C157.805 47.468 157.445 47.7293 157.025 47.916C156.605 48.0933 156.148 48.182 155.653 48.182C155.159 48.182 154.701 48.0933 154.281 47.916C153.861 47.7293 153.497 47.468 153.189 47.132C152.891 46.796 152.657 46.3947 152.489 45.928C152.321 45.4613 152.237 44.9387 152.237 44.36C152.237 43.7907 152.321 43.2727 152.489 42.806C152.657 42.33 152.891 41.924 153.189 41.588C153.497 41.252 153.861 40.9953 154.281 40.818C154.701 40.6313 155.159 40.538 155.653 40.538C156.148 40.538 156.605 40.6313 157.025 40.818C157.445 40.9953 157.805 41.252 158.103 41.588C158.411 41.924 158.649 42.33 158.817 42.806C158.985 43.2727 159.069 43.7907 159.069 44.36ZM157.711 44.36C157.711 43.5387 157.525 42.89 157.151 42.414C156.787 41.9287 156.288 41.686 155.653 41.686C155.019 41.686 154.515 41.9287 154.141 42.414C153.777 42.89 153.595 43.5387 153.595 44.36C153.595 45.1813 153.777 45.8347 154.141 46.32C154.515 46.796 155.019 47.034 155.653 47.034C156.288 47.034 156.787 46.796 157.151 46.32C157.525 45.8347 157.711 45.1813 157.711 44.36ZM160.005 46.936H160.789C161.097 46.488 161.34 46.026 161.517 45.55C161.704 45.074 161.844 44.584 161.937 44.08C162.031 43.5667 162.091 43.0347 162.119 42.484C162.147 41.924 162.166 41.336 162.175 40.72H166.949V46.936H167.929V50.03H166.697V48H161.237V50.03H160.005V46.936ZM165.647 46.936V41.812H163.365C163.356 42.2507 163.333 42.694 163.295 43.142C163.258 43.5807 163.197 44.0193 163.113 44.458C163.029 44.8873 162.908 45.312 162.749 45.732C162.6 46.1427 162.409 46.544 162.175 46.936H165.647ZM175.763 44.36C175.763 44.9387 175.679 45.4613 175.511 45.928C175.343 46.3947 175.105 46.796 174.797 47.132C174.498 47.468 174.139 47.7293 173.719 47.916C173.299 48.0933 172.841 48.182 172.347 48.182C171.852 48.182 171.395 48.0933 170.975 47.916C170.555 47.7293 170.191 47.468 169.883 47.132C169.584 46.796 169.351 46.3947 169.183 45.928C169.015 45.4613 168.931 44.9387 168.931 44.36C168.931 43.7907 169.015 43.2727 169.183 42.806C169.351 42.33 169.584 41.924 169.883 41.588C170.191 41.252 170.555 40.9953 170.975 40.818C171.395 40.6313 171.852 40.538 172.347 40.538C172.841 40.538 173.299 40.6313 173.719 40.818C174.139 40.9953 174.498 41.252 174.797 41.588C175.105 41.924 175.343 42.33 175.511 42.806C175.679 43.2727 175.763 43.7907 175.763 44.36ZM174.405 44.36C174.405 43.5387 174.218 42.89 173.845 42.414C173.481 41.9287 172.981 41.686 172.347 41.686C171.712 41.686 171.208 41.9287 170.835 42.414C170.471 42.89 170.289 43.5387 170.289 44.36C170.289 45.1813 170.471 45.8347 170.835 46.32C171.208 46.796 171.712 47.034 172.347 47.034C172.981 47.034 173.481 46.796 173.845 46.32C174.218 45.8347 174.405 45.1813 174.405 44.36ZM178.869 47.02C178.925 47.0293 179.004 47.0387 179.107 47.048C179.209 47.0573 179.326 47.0667 179.457 47.076C179.587 47.076 179.723 47.0807 179.863 47.09C180.012 47.09 180.152 47.09 180.283 47.09C180.553 47.09 180.81 47.0713 181.053 47.034C181.305 46.9967 181.519 46.9313 181.697 46.838C181.883 46.7447 182.028 46.6233 182.131 46.474C182.243 46.3153 182.299 46.1147 182.299 45.872C182.299 45.6387 182.247 45.4473 182.145 45.298C182.051 45.1393 181.921 45.0133 181.753 44.92C181.585 44.8267 181.384 44.7613 181.151 44.724C180.927 44.6867 180.684 44.668 180.423 44.668H178.869V47.02ZM180.255 43.702C180.507 43.702 180.735 43.688 180.941 43.66C181.155 43.6227 181.337 43.562 181.487 43.478C181.645 43.394 181.767 43.282 181.851 43.142C181.944 43.002 181.991 42.8247 181.991 42.61C181.991 42.386 181.935 42.2087 181.823 42.078C181.711 41.9473 181.561 41.8493 181.375 41.784C181.197 41.7093 180.992 41.6627 180.759 41.644C180.535 41.616 180.306 41.602 180.073 41.602C179.858 41.602 179.639 41.6067 179.415 41.616C179.2 41.6253 179.018 41.6347 178.869 41.644V43.702H180.255ZM180.227 48.126C179.676 48.126 179.167 48.098 178.701 48.042C178.234 47.9953 177.865 47.9393 177.595 47.874V40.79C177.865 40.7247 178.234 40.6687 178.701 40.622C179.167 40.566 179.676 40.538 180.227 40.538C180.609 40.538 180.983 40.5707 181.347 40.636C181.711 40.7013 182.033 40.8133 182.313 40.972C182.593 41.1213 182.817 41.3313 182.985 41.602C183.162 41.8633 183.251 42.19 183.251 42.582C183.251 42.9367 183.162 43.24 182.985 43.492C182.807 43.744 182.569 43.94 182.271 44.08C182.672 44.22 182.989 44.43 183.223 44.71C183.465 44.9807 183.587 45.3633 183.587 45.858C183.587 46.2967 183.498 46.6607 183.321 46.95C183.153 47.2393 182.915 47.4727 182.607 47.65C182.308 47.8273 181.953 47.9487 181.543 48.014C181.132 48.0887 180.693 48.126 180.227 48.126ZM187.939 44.402C187.687 44.402 187.439 44.4113 187.197 44.43C186.963 44.4393 186.753 44.4673 186.567 44.514V47.02C186.623 47.0293 186.702 47.0387 186.805 47.048C186.917 47.0573 187.033 47.0667 187.155 47.076C187.285 47.076 187.416 47.0807 187.547 47.09C187.677 47.09 187.794 47.09 187.897 47.09C188.466 47.09 188.905 46.9827 189.213 46.768C189.521 46.5533 189.675 46.208 189.675 45.732C189.675 45.4987 189.623 45.298 189.521 45.13C189.427 44.962 189.297 44.8267 189.129 44.724C188.97 44.612 188.788 44.5327 188.583 44.486C188.377 44.43 188.163 44.402 187.939 44.402ZM185.265 40.72H186.567V43.506C186.725 43.4687 186.954 43.4313 187.253 43.394C187.561 43.3567 187.855 43.338 188.135 43.338C188.517 43.338 188.881 43.3847 189.227 43.478C189.572 43.562 189.875 43.702 190.137 43.898C190.398 44.0847 190.603 44.332 190.753 44.64C190.911 44.9387 190.991 45.298 190.991 45.718C190.991 46.1567 190.916 46.53 190.767 46.838C190.617 47.146 190.407 47.398 190.137 47.594C189.866 47.79 189.539 47.93 189.157 48.014C188.774 48.1073 188.354 48.154 187.897 48.154C187.458 48.154 187.015 48.126 186.567 48.07C186.119 48.0233 185.685 47.9487 185.265 47.846V40.72ZM193.637 48H192.335V40.72H193.637V48ZM200.228 48C200.125 47.7947 199.999 47.566 199.85 47.314C199.701 47.062 199.537 46.8053 199.36 46.544C199.183 46.2733 199.001 46.0073 198.814 45.746C198.627 45.4847 198.445 45.2373 198.268 45.004C198.091 45.2373 197.909 45.4893 197.722 45.76C197.535 46.0213 197.353 46.2873 197.176 46.558C197.008 46.8193 196.849 47.076 196.7 47.328C196.551 47.58 196.425 47.804 196.322 48H194.978C195.305 47.3653 195.692 46.7213 196.14 46.068C196.597 45.4053 197.05 44.7753 197.498 44.178L195.09 40.72H196.56L198.296 43.268L200.046 40.72H201.432L199.08 44.094C199.528 44.7007 199.985 45.3447 200.452 46.026C200.928 46.698 201.329 47.356 201.656 48H200.228Z" fill="black"/>
<defs>
<linearGradient id="paint0_linear_145_1256" x1="0.5" y1="0" x2="0.5" y2="423" gradientUnits="userSpaceOnUse">
<stop stop-color="#C6D9E9" stop-opacity="0"/>
<stop offset="0.494792" stop-color="#C6D9E9"/>
<stop offset="1" stop-color="#C6D9E9" stop-opacity="0"/>
</linearGradient>
<linearGradient id="paint1_linear_145_1256" x1="0.5" y1="0" x2="0.5" y2="423" gradientUnits="userSpaceOnUse">
<stop stop-color="#C6D9E9" stop-opacity="0"/>
<stop offset="0.494792" stop-color="#C6D9E9"/>
<stop offset="1" stop-color="#C6D9E9" stop-opacity="0"/>
</linearGradient>
<linearGradient id="paint2_linear_145_1256" x1="0.5" y1="0" x2="0.5" y2="423" gradientUnits="userSpaceOnUse">
<stop stop-color="#C6D9E9" stop-opacity="0"/>
<stop offset="0.494792" stop-color="#C6D9E9"/>
<stop offset="1" stop-color="#C6D9E9" stop-opacity="0"/>
</linearGradient>
<linearGradient id="paint3_linear_145_1256" x1="0.5" y1="0" x2="0.5" y2="423" gradientUnits="userSpaceOnUse">
<stop stop-color="#C6D9E9" stop-opacity="0"/>
<stop offset="0.494792" stop-color="#C6D9E9"/>
<stop offset="1" stop-color="#C6D9E9" stop-opacity="0"/>
</linearGradient>
<linearGradient id="paint4_linear_145_1256" x1="0.5" y1="0" x2="0.5" y2="423" gradientUnits="userSpaceOnUse">
<stop stop-color="#C6D9E9" stop-opacity="0"/>
<stop offset="0.494792" stop-color="#C6D9E9"/>
<stop offset="1" stop-color="#C6D9E9" stop-opacity="0"/>
</linearGradient>
<linearGradient id="paint5_linear_145_1256" x1="0.5" y1="0" x2="0.5" y2="423" gradientUnits="userSpaceOnUse">
<stop stop-color="#C6D9E9" stop-opacity="0"/>
<stop offset="0.494792" stop-color="#C6D9E9"/>
<stop offset="1" stop-color="#C6D9E9" stop-opacity="0"/>
</linearGradient>
</defs>
</svg>
