<svg width="43" height="43" viewBox="0 0 43 43" fill="none" xmlns="http://www.w3.org/2000/svg">
<rect width="43" height="43" rx="6" transform="matrix(1 0 0 -1 0 43)" fill="white"/>
<path d="M17.9064 22.1174L25.9849 29.2265C26.0784 29.3088 26.1916 29.3653 26.3135 29.3907C26.4354 29.416 26.5618 29.4092 26.6803 29.371C26.7988 29.3328 26.9054 29.2645 26.9895 29.1727C27.0736 29.0809 27.1325 28.9689 27.1603 28.8475L30.5397 14.1012C30.5689 13.9737 30.5628 13.8407 30.522 13.7164C30.4811 13.5921 30.4072 13.4813 30.3081 13.396C30.2089 13.3106 30.0884 13.254 29.9595 13.2321C29.8305 13.2102 29.698 13.2239 29.5763 13.2717L12.995 19.7858C12.8505 19.8425 12.7282 19.9446 12.6466 20.0766C12.5649 20.2086 12.5282 20.3636 12.5419 20.5182C12.5556 20.6729 12.619 20.8189 12.7227 20.9345C12.8263 21.0501 12.9646 21.1291 13.1169 21.1595L17.9064 22.1174Z" stroke="black" stroke-linecap="round" stroke-linejoin="round"/>
<path d="M17.9062 22.1174L30.1351 13.2855" stroke="black" stroke-linecap="round" stroke-linejoin="round"/>
<path d="M21.9409 25.6679L19.1332 28.4755C19.0327 28.5761 18.9046 28.6445 18.7652 28.6723C18.6258 28.7 18.4813 28.6858 18.3499 28.6314C18.2186 28.577 18.1064 28.4848 18.0274 28.3666C17.9484 28.2484 17.9063 28.1095 17.9062 27.9673V22.1174" stroke="black" stroke-linecap="round" stroke-linejoin="round"/>
</svg>
