<svg width="43" height="43" viewBox="0 0 43 43" fill="none" xmlns="http://www.w3.org/2000/svg">
<rect width="43" height="43" rx="6" transform="matrix(1 0 0 -1 0 43)" fill="white"/>
<path d="M14.3127 27.9688C14.3127 27.9688 17.9065 27.25 18.6252 25.0938C18.6252 25.0938 12.8752 22.9375 14.3127 15.0313C14.3127 15.0313 17.1877 18.625 21.5002 19.3438V17.9065C21.5003 17.0808 21.7847 16.2803 22.3055 15.6396C22.8264 14.9989 23.5519 14.557 24.3602 14.3883C25.1685 14.2196 26.0102 14.3343 26.7438 14.7132C27.4775 15.0921 28.0583 15.712 28.3887 16.4687L31.5627 16.4688L28.6877 19.3438C28.6877 24.375 25.094 29.4063 18.6252 29.4063C15.7502 29.4063 14.3127 27.9688 14.3127 27.9688Z" stroke="black" stroke-linecap="round" stroke-linejoin="round"/>
</svg>
