<svg width="43" height="43" viewBox="0 0 43 43" fill="none" xmlns="http://www.w3.org/2000/svg">
<rect width="43" height="43" rx="6" transform="matrix(1 0 0 -1 0 43)" fill="white"/>
<path d="M24.375 21.5L20.0625 18.625V24.375L24.375 21.5Z" stroke="black" stroke-linecap="round" stroke-linejoin="round"/>
<path d="M12.1562 21.5C12.1562 24.1733 12.4324 25.7419 12.6424 26.548C12.6985 26.7682 12.8063 26.9718 12.9568 27.142C13.1073 27.3122 13.2962 27.4442 13.5079 27.5268C16.5155 28.6826 21.5 28.6509 21.5 28.6509C21.5 28.6509 26.4844 28.6826 29.4921 27.5268C29.7038 27.4442 29.8927 27.3123 30.0432 27.142C30.1937 26.9718 30.3015 26.7682 30.3576 26.548C30.5675 25.7419 30.8438 24.1734 30.8438 21.5C30.8438 18.8267 30.5676 17.2581 30.3576 16.452C30.3015 16.2318 30.1937 16.0282 30.0432 15.858C29.8927 15.6878 29.7038 15.5559 29.4921 15.4732C26.4845 14.3174 21.5 14.3491 21.5 14.3491C21.5 14.3491 16.5156 14.3174 13.5079 15.4732C13.2962 15.5558 13.1073 15.6877 12.9568 15.858C12.8063 16.0282 12.6985 16.2318 12.6424 16.452C12.4325 17.2581 12.1562 18.8267 12.1562 21.5Z" stroke="black" stroke-linecap="round" stroke-linejoin="round"/>
</svg>
